<svg xmlns="http://www.w3.org/2000/svg" viewBox="0 0 537.33 222.33" width="537" height="222"><path fill="#1D1D1B" fill-rule="evenodd" d="M236.17 221.32C235.25 220.76 234.28 220.17 234 220C233.72 219.83 232.75 219.31 231.83 218.84C230.92 218.37 227.92 216.8 225.17 215.36C222.42 213.91 217.69 211.5 214.67 210.01C211.64 208.51 208.94 207.15 208.67 206.97C208.39 206.8 207.94 206.57 207.67 206.46C207.39 206.34 204.39 204.9 201 203.26C190.61 198.21 182.3 194.24 177.5 192.03C173.66 190.26 173.57 190.2 173.59 189.82C173.6 189.54 178.07 188.21 181.83 187.37C182.57 187.2 184.44 186.73 186 186.32C187.56 185.91 189.36 185.46 190 185.33C190.64 185.19 192.74 184.68 194.67 184.19C196.59 183.71 198.99 183.1 200 182.85C201.01 182.59 202.73 182.15 203.83 181.87C205.94 181.33 211.3 180.04 218.5 178.34C220.88 177.77 223.66 177.1 224.67 176.84C225.67 176.58 227.47 176.14 228.67 175.87C229.86 175.59 231.81 175.14 233 174.87C234.19 174.59 236.14 174.14 237.33 173.87C238.53 173.59 240.55 173.12 241.83 172.83C243.12 172.53 244.99 172.09 246 171.84C247.01 171.59 248.96 171.14 250.33 170.84C252.74 170.31 254.31 169.95 259 168.87C264.1 167.69 265.64 167.34 268 166.82C269.38 166.51 271.44 166.05 272.58 165.8C273.73 165.54 275.6 165.12 276.75 164.87C281.53 163.8 283.63 163.34 286 162.84C287.38 162.54 289.4 162.1 290.5 161.85C291.6 161.6 293.7 161.14 295.17 160.83C296.63 160.52 298.73 160.06 299.83 159.82C300.93 159.58 302.96 159.15 304.33 158.86C307.78 158.15 311.42 157.38 314 156.83C315.19 156.57 317.37 156.12 318.83 155.82C324.41 154.67 325.9 154.36 328.17 153.88C329.45 153.61 331.78 153.14 333.33 152.83C334.89 152.53 337.14 152.08 338.33 151.83C339.53 151.59 341.78 151.14 343.33 150.83C347.76 149.95 350.98 149.31 353.33 148.82C354.53 148.58 356.85 148.13 358.5 147.83C360.15 147.53 362.47 147.08 363.67 146.83C364.86 146.58 367.18 146.13 368.83 145.82C370.48 145.52 372.88 145.07 374.17 144.82C375.45 144.58 377.85 144.13 379.5 143.82C381.15 143.52 383.55 143.07 384.83 142.83C386.12 142.59 388.48 142.15 390.08 141.86C391.69 141.57 394.24 141.11 395.75 140.84C402.11 139.68 404 139.35 407 138.82C408.74 138.52 411.29 138.07 412.67 137.83C415.61 137.31 420.15 136.53 424.33 135.83C425.98 135.56 428.68 135.11 430.33 134.83C437.33 133.67 444.2 132.55 448.83 131.83C450.67 131.55 453.52 131.1 455.17 130.84C456.82 130.58 459.67 130.15 461.5 129.87C463.33 129.6 466.41 129.14 468.33 128.85C482.23 126.77 489.17 125.2 495.33 122.74C495.79 122.56 496.84 122.15 497.67 121.83C500.11 120.89 505.35 118.46 506.67 117.65C506.94 117.49 508.37 116.64 509.83 115.78C516 112.14 522.25 106.68 525.92 101.73C528.16 98.7 529.47 96.09 530.2 93.2C530.67 91.32 530.69 90.73 530.35 89.56C529.44 86.45 527.81 85.37 525.08 86.05C522.15 86.79 520.84 87.51 516.34 90.89C513.15 93.28 511.32 95.02 503 103.5C494.77 111.9 488.91 115.65 482.43 116.68C478.17 117.35 474.79 116.17 473.28 113.5C472.65 112.38 472.54 111.71 472.57 109.29C472.6 107.41 472.79 106.06 473.13 105.41C473.6 104.5 473.56 104 473.01 104C472.89 104 471.36 105.41 469.62 107.13C466.28 110.42 460.76 114.73 458.3 115.96C457.49 116.37 456.61 116.82 456.33 116.96C454.73 117.82 454.17 118.06 452.43 118.65C446.32 120.72 440.45 120.15 436.37 117.1C433.97 115.3 432.38 112.71 431.3 108.83C430.63 106.45 430.71 99.11 431.44 96.39C431.75 95.23 432 94.14 432 93.97C432 93.43 431.05 93.65 430.6 94.29C429.41 95.98 419.22 106.78 414.17 111.7C407.36 118.33 402.33 121.83 396.87 123.73C395.42 124.24 394.09 124.42 391.83 124.41C389.12 124.4 388.6 124.3 387.41 123.55C384.61 121.78 383.71 119.08 384.5 114.78C385.29 110.44 385.24 110.56 396.8 87.83C406.93 67.93 406.84 68.12 407.99 64.67C409.34 60.64 409.13 58.56 407.34 58.17C404.36 57.51 399.28 61.13 388.88 71.32C374.73 85.18 358.52 105.76 349.89 120.83C349.36 121.75 348.42 123.37 347.8 124.43C347.18 125.5 346.67 126.47 346.67 126.6C346.66 126.73 346.33 127.25 345.92 127.77C345.22 128.63 344.92 128.72 341.83 129C340 129.16 335.64 129.55 332.15 129.87C328.65 130.19 325.53 130.35 325.2 130.23C324.64 130.01 324.65 129.94 325.27 128.92C325.64 128.32 327.58 124.61 329.59 120.67C337.18 105.82 341.63 97.24 342.44 95.96C343.28 94.6 342.17 94.96 340.75 96.5C338.44 99 336.59 101.01 331.67 106.33C320.69 118.23 315.92 122.88 310.74 126.73C307.06 129.48 306.69 129.72 304.83 130.6C299.91 132.94 296.56 133.48 293.22 132.49C291.24 131.9 290.33 131.23 289.36 129.63C288.47 128.17 288.36 123.22 289.2 121.61C289.57 120.89 289.62 120.49 289.37 120.24C289.12 119.99 288.45 120.46 287.08 121.86C281.18 127.87 274.51 132.59 269.17 134.53C267.18 135.25 263.06 136 261.17 135.99C259.13 135.97 255.79 135.28 254.67 134.64C250.64 132.33 248.82 129.9 247.41 125C246.69 122.49 246.71 115.92 247.45 112.9C247.75 111.65 248 110.48 248 110.31C248 109.39 246.77 110.43 243.16 114.4C235.95 122.34 226.7 131.37 222.92 134.17C216.4 139.01 212.95 140.46 208 140.48C204.4 140.49 203.09 139.95 201.41 137.74C200.56 136.62 200.5 136.34 200.51 133.19C200.52 128.3 201.04 126.95 208.09 113.33C209.56 110.49 212 105.77 213.5 102.83C215 99.9 216.51 97.02 216.86 96.44C217.6 95.18 217.28 94.65 216.18 95.34C211.2 98.46 208.54 99.7 205.07 100.52C202.25 101.19 198.7 101.24 196.37 100.65C194.68 100.21 194.55 100.22 194.11 100.84C193.85 101.2 191.64 104.51 189.2 108.2C178.73 124.01 169.44 135.07 162.04 140.54C155.96 145.04 149.3 146.83 143.5 145.53C140.63 144.88 139.34 144.24 137.41 142.5C134 139.44 132.48 133.93 133.33 127.73C133.57 125.95 134.03 123.6 134.34 122.5C135.14 119.72 138.95 109.58 139.35 109.19C139.75 108.79 139.77 107.33 139.37 107.33C139.21 107.33 138.35 108.2 137.46 109.25C133.04 114.46 114.66 134.02 109.67 138.82C106.23 142.12 101.75 145.75 98.82 147.58C95.38 149.74 91.18 151.07 87.83 151.08C85.15 151.08 83.55 150.5 82.04 148.99C80.69 147.64 80.22 145.76 80.43 142.63C80.74 137.97 80.4 138.71 97.58 105.33C99.23 102.12 102.42 95.9 104.67 91.5C106.91 87.1 110.63 79.83 112.93 75.33C115.23 70.84 117.88 65.67 118.81 63.83C119.96 61.56 120.76 60.38 121.33 60.12C121.79 59.91 124.34 59.57 127 59.37C129.66 59.16 133.93 58.78 136.5 58.52C139.07 58.27 141.3 58.18 141.46 58.34C141.62 58.5 141.46 59.1 141.08 59.73C140.71 60.33 138.42 64.73 135.99 69.5C133.56 74.27 130.26 80.72 128.67 83.83C117.47 105.65 115.66 109.23 114.58 111.67C112.44 116.51 112.09 117.88 112.77 118.8C113.2 119.39 113.28 119.38 114.69 118.5C116.13 117.61 132.46 101.44 143.19 90.29C148.35 84.93 149.04 84.01 150.1 81.17C150.37 80.43 151.08 78.63 151.67 77.17C152.25 75.7 152.93 73.98 153.17 73.33C153.4 72.69 154.05 71.04 154.6 69.67C155.15 68.29 155.92 66.34 156.32 65.33C156.71 64.33 157.17 63.2 157.33 62.83C157.48 62.47 158.08 60.97 158.65 59.51C159.22 58.05 159.87 56.74 160.1 56.6C160.32 56.46 161.17 56.34 162 56.34C162.83 56.34 165.67 56.11 168.33 55.83C170.99 55.56 174.73 55.18 176.63 54.98C180.3 54.61 180.99 54.77 180.4 55.88C180 56.62 176.97 64.49 174.38 71.5C173.84 72.97 173.07 74.99 172.67 76C172.27 77.01 171.82 78.21 171.67 78.67C171.51 79.12 171.06 80.33 170.67 81.33C170.27 82.34 169.82 83.54 169.67 84C169.51 84.46 169.06 85.66 168.67 86.67C168.27 87.67 167.82 88.88 167.67 89.33C167.51 89.79 167.06 90.99 166.68 92C166.29 93.01 165.77 94.36 165.53 95C165.29 95.64 164.23 98.42 163.17 101.17C160.07 109.23 159.68 110.57 159.68 113.29C159.66 116.35 160.36 117.67 162.42 118.5C166.28 120.04 172.04 116.57 177.29 109.54C179.69 106.33 182.16 102.62 183.34 100.46C183.73 99.75 184.31 98.72 184.63 98.17C184.95 97.62 185.77 96.16 186.44 94.93L187.66 92.69L187.17 90.78C186.51 88.25 186.54 86.49 187.31 82.12C189.44 70.09 197.3 57.25 205.17 52.95C207.84 51.49 211.03 51.79 212.98 53.69C217 57.59 216.44 62.15 210.67 72.5C210.27 73.23 208.72 76.01 207.24 78.67C205.77 81.33 204.34 83.75 204.08 84.06C203.83 84.36 203.66 84.96 203.72 85.38C203.81 85.96 204.14 86.21 205.17 86.43C210.64 87.62 217.58 83.47 227 73.37L230.5 69.62L235.33 60.22C237.99 55.05 240.36 50.49 240.6 50.08C240.94 49.48 241.32 49.33 242.6 49.32C243.46 49.32 245.29 49.17 246.67 48.99C248.04 48.81 251.17 48.51 253.62 48.32C256.07 48.14 258.76 47.83 259.59 47.65C261.37 47.25 262.06 47.62 261.43 48.63C260.96 49.39 257.69 55.68 252.5 65.83C250.35 70.05 247.32 75.94 245.78 78.92C239.31 91.46 233.67 102.99 232.97 105.12C232.42 106.81 232.31 107.55 232.57 107.95C232.95 108.55 234.19 108.51 234.85 107.89C235.07 107.67 236.25 106.67 237.47 105.67C240.72 102.98 261.3 81.91 262.67 79.88C276.31 59.58 290.68 46.96 303.33 44.15C307.17 43.3 310.76 43.68 313.23 45.2C316.13 47 319.1 50.89 320.18 54.33C320.87 56.5 321.11 56.84 321.57 56.26C321.76 56.03 323.31 53.06 325.02 49.67C329.3 41.14 328.75 41.77 332.25 41.52C333.85 41.4 336.37 41.16 337.83 40.99C339.3 40.81 342.22 40.52 344.33 40.34C346.44 40.16 348.5 39.92 348.92 39.8C349.55 39.62 349.67 39.72 349.67 40.42C349.67 40.88 349.44 41.44 349.17 41.67C348.89 41.89 348.67 42.33 348.67 42.64C348.67 42.95 348.53 43.34 348.36 43.52C348.19 43.69 346.74 46.38 345.15 49.5C341.95 55.77 336.93 65.57 331.07 77C322.95 92.83 320.67 97.76 320.67 99.44C320.67 100.7 321.42 101.14 322.56 100.55C324.28 99.66 331.41 92.65 349.85 73.73C358.85 64.48 357.09 67.23 369.05 43.76C370.56 40.79 371.99 38.28 372.22 38.19C373.2 37.82 392.27 36.16 392.54 36.43C392.67 36.56 392.24 37.67 391.6 38.91C390.26 41.47 384.94 51.86 379.17 63.17C377.02 67.38 375.15 70.98 375 71.17C374.42 71.92 372.67 75.46 372.67 75.88C372.67 76.84 373.29 76.19 376.34 72.08C383.52 62.39 393.74 51.39 401.03 45.5C404.2 42.94 405.07 42.27 407.01 40.95C408.21 40.13 409.41 39.35 409.68 39.23C409.95 39.1 410.62 38.7 411.17 38.35C411.72 38 413.29 37.15 414.67 36.48C416.04 35.81 417.45 35.11 417.79 34.93C419.37 34.12 423.36 33.35 426.02 33.34C431.29 33.33 434.37 35 436.11 38.82C437.06 40.9 436.74 45.9 435.41 49.83C433.87 54.4 433.23 55.73 422.61 76.67C418.29 85.18 417.34 87.33 416.63 90.14C415.92 92.96 417.21 93.06 420.41 90.44C424.4 87.17 445.43 65.56 447.2 62.9C451.98 55.72 458.48 47.86 464.37 42.15C467.68 38.93 473.86 33.9 475.33 33.22C475.61 33.1 476.28 32.7 476.83 32.35C480 30.31 483.78 28.83 488.08 27.95C490.84 27.39 491.61 27.34 493.16 27.67C498.13 28.7 502.41 32.89 504.13 38.42C504.46 39.47 504.91 40.33 505.12 40.33C505.34 40.33 507.08 37.27 509 33.53C510.91 29.78 512.67 26.45 512.9 26.13C513.25 25.66 514.08 25.5 517.28 25.3C519.45 25.16 521.74 24.96 522.36 24.86C522.99 24.75 525.38 24.51 527.67 24.32C529.96 24.13 532.25 23.89 532.75 23.78C533.97 23.52 533.96 24.17 532.71 26.43C531.8 28.09 528.37 34.75 520.41 50.33C518.4 54.27 515.14 60.65 513.16 64.5C508.05 74.46 506.9 76.81 505.69 79.88C504.5 82.88 504.43 84.44 505.5 84.6C506.3 84.71 507.42 83.92 510.93 80.73C514.11 77.85 515.88 76.53 518.08 75.43C520.33 74.3 523.85 73.33 525.71 73.33C527.6 73.33 530.41 74.19 532.06 75.26C533.27 76.04 535.67 79.13 535.67 79.89C535.67 80.1 536.04 81.07 536.5 82.05C537.52 84.25 537.57 86.31 536.68 89.77C536.33 91.16 535.87 93.2 535.67 94.3C534.91 98.49 531.96 106.11 529.98 109C529.67 109.46 528.86 110.69 528.18 111.74C524.61 117.27 516.83 124.33 510.32 127.94C507.03 129.77 502.66 131.84 500.17 132.77C499.43 133.04 498.23 133.48 497.5 133.75C491.68 135.91 483.47 137.72 474.5 138.82C472.12 139.11 468.29 139.58 466 139.86C450.69 141.74 433.33 144.44 421 146.85C419.62 147.12 416.93 147.65 415 148.03C413.07 148.4 410.9 148.83 410.17 148.99C409.43 149.15 407.63 149.53 406.17 149.84C403.19 150.47 400.56 151.06 397.33 151.8C396.14 152.08 394.12 152.54 392.83 152.84C391.55 153.14 389.9 153.54 389.17 153.74C388.43 153.94 387.31 154.21 386.67 154.35C385.36 154.63 379.24 156.22 375.17 157.34C373.7 157.75 372 158.2 371.39 158.34C370.78 158.49 369.88 158.76 369.39 158.93C368.9 159.11 367.53 159.52 366.33 159.84C365.14 160.16 363.57 160.61 362.83 160.84C362.1 161.08 359.93 161.76 358 162.35C356.07 162.95 352.1 164.25 349.17 165.24C346.23 166.23 343.38 167.17 342.83 167.33C342.28 167.49 340.33 168.17 338.5 168.83C336.67 169.5 334.79 170.17 334.33 170.33C333.88 170.49 332.68 170.94 331.67 171.33C330.66 171.73 329.46 172.18 329 172.34C327.99 172.69 326.14 173.41 325 173.9C324.54 174.1 323.49 174.52 322.67 174.84C321.16 175.42 320.15 175.84 318 176.77C317.36 177.05 316.01 177.61 315 178.01C313.99 178.41 312.34 179.11 311.33 179.57C310.32 180.02 309.05 180.59 308.5 180.84C301.12 184.12 292.46 188.32 286.83 191.34C285.18 192.23 283.08 193.35 282.17 193.83C281.25 194.31 279.6 195.22 278.5 195.85C277.4 196.47 276.2 197.14 275.83 197.33C275.47 197.52 274.72 197.97 274.17 198.33C273.62 198.69 272.87 199.14 272.5 199.33C272.13 199.52 271.38 199.97 270.83 200.33C270.28 200.69 269.53 201.14 269.17 201.33C268.8 201.52 268.05 201.97 267.5 202.33C266.95 202.7 266.28 203.1 266.01 203.23C265.74 203.35 264.62 204.08 263.5 204.84C262.39 205.61 261.33 206.29 261.16 206.36C260.68 206.56 253.55 211.42 250.67 213.51C249.29 214.5 247.51 215.79 246.71 216.37C245.9 216.95 243.88 218.53 242.21 219.87C240.53 221.22 238.87 222.32 238.5 222.32C238.13 222.32 237.08 221.87 236.17 221.32ZM329.17 220.11C324.61 219.39 321.28 216.55 320.56 212.78C320.3 211.42 320.74 211.1 322.8 211.14C324.51 211.17 324.48 211.14 325.45 213.4C325.76 214.14 326.53 215.01 327.35 215.55C328.56 216.35 329.06 216.46 331.45 216.48C333.7 216.5 334.37 216.37 335.36 215.76C337.23 214.6 337.79 212.85 336.86 211.05C336.18 209.74 335.6 209.5 329 207.83C323.43 206.41 321.53 204.61 321.56 200.8C321.58 199.07 321.75 198.41 322.46 197.33C324.68 193.98 330.58 192.51 335.31 194.14C337.66 194.95 340.13 197.34 340.67 199.34C341.13 201.07 340.9 201.35 338.89 201.46C337.04 201.57 336.92 201.5 336.2 199.97C335.23 197.91 333.89 197.19 331 197.18C328.21 197.17 327.01 197.71 326.15 199.37C325.49 200.64 325.52 200.81 326.65 202.09C327.64 203.23 328.72 203.67 333.33 204.85C338.26 206.1 339.06 206.53 340.72 208.8C341.53 209.91 341.67 210.41 341.67 212.26C341.67 215.8 339.77 218.18 335.93 219.48C334.34 220.02 330.71 220.36 329.17 220.11ZM354.39 219.98C347.58 218.64 343.45 212 344.65 204.32C345.35 199.77 347.75 196.45 351.67 194.59C353.5 193.72 354.25 193.56 356.5 193.53C359.16 193.5 361.7 194.06 362.69 194.89C362.98 195.13 363.38 195.33 363.58 195.33C364.19 195.33 367.29 198.97 367.96 200.48C371.74 209.03 367.44 218.4 359.01 220C357.01 220.38 356.42 220.38 354.39 219.98ZM403.5 220.14C400.14 219.33 399.09 218.81 397.48 217.16C395 214.62 394.67 212.93 394.67 202.85C394.67 198.05 394.8 194.7 395.01 194.31C395.28 193.81 395.72 193.67 396.97 193.67C397.87 193.67 398.74 193.85 398.93 194.09C399.15 194.35 399.32 197.93 399.39 203.67C399.51 213.94 399.51 213.93 402.05 215.53C403.06 216.17 403.77 216.33 405.51 216.33C408.21 216.33 409.95 215.52 411.05 213.76C411.81 212.53 411.84 212.28 411.95 203.34C412.02 196.84 412.17 194.1 412.45 193.92C413.02 193.56 415.93 193.62 416.17 194C416.28 194.18 416.36 198.37 416.34 203.31C416.31 213.07 416.13 214.4 414.48 216.55C413.52 217.82 411.92 218.9 410 219.58C408.73 220.04 404.57 220.39 403.5 220.14ZM461.83 219.79C460.73 219.5 459.6 219.05 459.31 218.79C459.02 218.54 458.64 218.33 458.46 218.33C458.05 218.33 454.97 215.09 454.38 214.03C451.41 208.74 452.32 201.09 456.41 197.01C462.29 191.12 472.42 192.75 476.01 200.16C476.87 201.93 477.67 205.14 477.67 206.83C477.67 208.56 476.87 211.75 475.97 213.6C475.22 215.14 473.06 217.53 471.6 218.43C468.99 220.06 464.94 220.62 461.83 219.79ZM515.17 219.99C514.43 219.83 513.35 219.6 512.76 219.48C512.17 219.36 511.51 219.05 511.3 218.8C511.09 218.54 510.72 218.33 510.48 218.33C509.74 218.33 507.76 215.6 507.16 213.75C506.37 211.32 506.56 211.01 508.82 211.13C510.94 211.23 511.05 211.3 511.51 212.93C512.66 217.02 520.94 218.01 523.12 214.32C523.92 212.97 523.79 211.83 522.7 210.59C521.73 209.49 521.6 209.44 515.17 207.78C511.02 206.71 509.38 205.72 508.32 203.65C507.49 202.01 507.49 200.02 508.33 198.18C510.74 192.88 520.49 191.78 524.99 196.3C526.51 197.83 527.69 200.45 527.11 201.02C526.75 201.38 523.57 201.52 523.06 201.2C522.84 201.07 522.67 200.69 522.67 200.37C522.67 200.04 522.13 199.24 521.47 198.58C520.13 197.24 518.12 196.76 515.59 197.17C514.02 197.43 513.17 198.04 512.46 199.41C512.06 200.19 512.06 200.49 512.44 201.41C513.16 203.13 513.36 203.23 519.67 204.84C523.7 205.88 524.8 206.39 526.22 207.9C527.8 209.57 528.2 211.01 527.82 213.73C527.62 215.22 527.35 215.69 525.86 217.19C524.53 218.51 523.69 219.04 522.25 219.46C519.88 220.15 516.89 220.37 515.17 219.99ZM374.3 219.64C374.12 219.53 374.03 214.14 374.08 206.64L374.17 193.83L375.47 193.73C376.18 193.67 377.12 193.71 377.55 193.82L378.33 194.01L378.33 204.63C378.33 213.04 378.43 215.33 378.77 215.62C379.05 215.85 381.52 216.02 385.36 216.08L391.5 216.17L391.5 217.94L391.5 219.71L383.05 219.77C378.4 219.8 374.46 219.75 374.3 219.64ZM428 219.51C427.81 219.27 427.64 214.83 427.59 208.47L427.5 197.83L423.5 197.67L419.5 197.5L419.39 196.37C419.33 195.75 419.37 194.9 419.48 194.47L419.67 193.7L429.83 193.69C439.2 193.68 440.01 193.73 440.3 194.27C440.56 194.76 440.6 196.27 440.38 197.42C440.35 197.55 438.62 197.67 436.52 197.67C433.83 197.67 432.63 197.79 432.44 198.08C432.29 198.31 432.09 203.3 432 209.17L431.83 219.83L430.08 219.87C429.1 219.89 428.19 219.73 428 219.51ZM443.8 219.53C443.72 219.33 443.7 213.47 443.75 206.5L443.83 193.83L445.5 193.78C446.42 193.75 447.35 193.89 447.58 194.07C447.9 194.34 448 197.31 448 206.85C448 216.44 447.9 219.35 447.58 219.56C446.94 219.96 443.96 219.94 443.8 219.53ZM481.69 219.56C481.28 219.15 481.18 194.75 481.59 194.11C481.83 193.74 484.6 193.58 485.71 193.87C486.01 193.95 486.9 195.03 487.69 196.26C488.48 197.49 489.9 199.7 490.85 201.17C494.39 206.67 494.78 207.27 496.14 209.54C497.28 211.44 497.99 212.33 498.38 212.33C498.53 212.33 498.7 208.17 498.74 203.08L498.83 193.83L500.58 193.76C502 193.71 502.39 193.81 502.67 194.34C503.1 195.14 503.1 218.63 502.67 219.33C502.47 219.65 501.72 219.83 500.47 219.87C498.73 219.93 498.48 219.84 497.62 218.89C497.09 218.32 496.67 217.74 496.67 217.61C496.67 217.48 496.03 216.43 495.24 215.27C493.99 213.42 491.5 209.53 487.55 203.25C486.88 202.2 486.19 201.33 486 201.33C485.78 201.33 485.67 204.48 485.67 210.31C485.67 217.13 485.57 219.36 485.25 219.56C484.62 219.96 482.1 219.96 481.69 219.56ZM360.48 215.68C363.49 213.82 364.76 211.17 364.76 206.77C364.76 203.96 364.66 203.47 363.71 201.58C361.96 198.07 359.37 196.7 355.46 197.19C353.95 197.37 353.38 197.65 352.01 198.89C346.62 203.73 348.37 214.73 354.79 216.37C356.33 216.76 359.31 216.4 360.48 215.68ZM468.6 215.77C470.21 214.77 471.05 213.86 471.94 212.17C472.74 210.66 472.82 210.15 472.83 206.83C472.83 203.38 472.77 203.06 471.83 201.35C470.59 199.07 468.57 197.5 466.53 197.19C461.66 196.46 458.18 199.23 457.28 204.57C456.33 210.17 459.11 215.76 463.2 216.44C464.81 216.71 467.65 216.36 468.6 215.77ZM407.5 183.14C402.81 182.01 400.48 180.24 399.37 176.95C398.99 175.83 398.76 174.78 398.86 174.62C398.96 174.46 399.99 174.33 401.15 174.33C403.32 174.33 403.65 174.54 403.68 175.94C403.69 176.63 404.88 178.07 406 178.76C406.46 179.04 407.6 179.37 408.55 179.49C412.73 180.04 415.67 178.47 415.67 175.68C415.67 173.75 414.49 172.69 411.47 171.9C410.2 171.57 408.27 171.06 407.17 170.78C403.25 169.77 401.56 168.73 400.49 166.65C399.79 165.29 399.77 162.89 400.46 161.28C402.5 156.51 411.5 154.89 416.17 158.47C417.81 159.73 418.34 160.41 419.1 162.29C419.81 164.06 419.59 164.39 417.6 164.52C415.55 164.66 415.09 164.45 414.66 163.15C413.93 160.93 411.13 159.69 407.94 160.17C404.84 160.64 403.43 163.21 405.15 165.26C406.05 166.32 406.62 166.55 411.67 167.85C415.68 168.89 417.08 169.49 418.29 170.7C422.01 174.42 420.07 180.7 414.67 182.47C412.86 183.06 408.77 183.44 407.5 183.14ZM433.5 183.1C429.09 182.07 426.56 180.07 424.58 176.04C423.54 173.94 423.5 173.69 423.5 169.84C423.5 166.18 423.58 165.67 424.4 163.92C425.27 162.06 428.41 158.33 429.11 158.33C429.29 158.33 429.68 158.13 429.97 157.88C431.46 156.62 436.65 156.13 439.4 157C441.48 157.66 444.27 159.58 445.39 161.13C449.28 166.49 449.02 174.35 444.81 179.27C442.31 182.19 437.12 183.95 433.5 183.1ZM460.5 183.2C460.32 183.13 459.27 182.81 458.18 182.48C455.48 181.68 453.3 179.53 452.54 176.92C451.84 174.5 451.73 157.63 452.42 157.08C452.84 156.74 455.83 156.72 456.17 157.06C456.27 157.16 456.39 161.35 456.43 166.37C456.5 175.23 456.52 175.54 457.26 176.72C458.45 178.63 459.93 179.33 462.8 179.33C465.47 179.33 466.77 178.74 468.14 176.89C468.8 176 468.84 175.48 468.94 166.74C469 161.28 469.18 157.36 469.37 157.12C469.78 156.63 472.83 156.7 473.34 157.21C473.6 157.47 473.68 160.3 473.59 166.71C473.48 174.37 473.37 176.08 472.88 177.38C471.99 179.75 470.05 181.57 467.33 182.59C466.21 183.02 461.19 183.46 460.5 183.2ZM478.83 182.6C478.73 182.36 478.7 176.47 478.75 169.5L478.83 156.83L480.5 156.81C483.44 156.77 482.77 156.06 489.17 166C492.18 170.68 493.54 172.83 494.31 174.1C494.73 174.79 495.23 175.31 495.42 175.25C495.65 175.17 495.75 172.25 495.71 166.48C495.67 161.24 495.78 157.64 495.98 157.33C496.39 156.71 499.18 156.58 499.67 157.16C499.89 157.44 499.98 161.91 499.92 170.21L499.83 182.83L497.82 182.9C496.71 182.93 495.64 182.86 495.45 182.73C495.25 182.6 494.37 181.38 493.49 180C490.94 176 489.23 173.34 487.47 170.67C486.57 169.29 485.72 167.94 485.58 167.67C484.7 165.92 483.67 164.5 483.28 164.5C482.92 164.5 482.8 166.27 482.67 173.67L482.5 182.83L480.75 182.93C479.53 183 478.94 182.9 478.83 182.6ZM506.03 182.38C505.61 181.61 505.57 158.03 505.98 157.36C506.22 156.98 507.43 156.91 512.39 156.96C519.41 157.03 520.27 157.14 522.38 158.2C526.63 160.33 528.98 166.21 528.04 172.37C527.54 175.6 526.75 177.43 525.01 179.41C522.47 182.3 519.8 183 511.36 183C506.82 183 506.33 182.94 506.03 182.38ZM439.53 178.65C442.14 177.03 443.67 173.78 443.67 169.83C443.67 165.8 442.25 162.8 439.51 161.07C438.38 160.35 437.78 160.21 435.67 160.21C433.54 160.21 432.96 160.35 431.79 161.09C430.07 162.18 429.16 163.43 428.32 165.87C427.12 169.35 427.69 173.89 429.67 176.68C430.49 177.82 432.47 179.18 433.7 179.44C435.25 179.77 438.4 179.35 439.53 178.65ZM518.54 178.78C522.08 177.66 523.67 174.91 523.67 169.91C523.67 164.7 522.3 162.31 518.57 161C516.11 160.13 510.85 160.04 510.54 160.86C510.26 161.58 510.28 178.83 510.56 179.11C511.02 179.57 516.78 179.33 518.54 178.78ZM11.73 156.71C10.2 156.37 8.79 155.92 8.58 155.71C8.37 155.5 8 155.33 7.75 155.33C7.06 155.33 4.29 153.13 3.22 151.73C1.62 149.63 0.95 148 0.46 144.98C0.05 142.45 0.06 141.61 0.48 138.62C1.34 132.54 2.89 128.52 8.95 116.61C11.13 112.33 17.37 99.98 22.83 89.17C28.29 78.35 34.64 65.83 36.93 61.33C45.01 45.52 46.29 42.71 47.06 38.98C47.54 36.62 47.21 35.36 45.95 34.75C45.21 34.4 44.87 34.44 43.62 35.03C40.93 36.31 40.43 36.65 37.63 39.11C29.44 46.3 23.19 54.37 17.61 65C16.93 66.28 15.38 69.84 14.29 72.62C13.96 73.47 13.6 73.47 11.33 72.64C7.76 71.34 6.35 70.39 5.54 68.77C4.88 67.45 4.87 66.62 5.5 64.56C6.52 61.18 9.18 56.68 13.79 50.5C22.46 38.89 33.21 29.21 42.67 24.51C44.04 23.82 45.43 23.13 45.75 22.96C48.81 21.39 56.14 19.69 59.9 19.67C62.05 19.67 66.27 20.49 66.82 21.02C66.99 21.19 67.34 21.33 67.6 21.33C67.86 21.33 68.69 21.81 69.45 22.38C72.59 24.77 73.67 26.88 73.67 30.64C73.67 33.93 73.11 35.5 69.2 43.1C67.49 46.44 64.77 51.72 63.17 54.83C46.36 87.51 32.3 115.2 30.07 120C26.84 126.99 25.6 130.79 25.55 133.95C25.5 136.29 25.54 136.43 26.5 137.2C28.62 138.9 31.12 137.76 35.9 132.92C42.02 126.73 47.95 118.91 58.48 103.15C65.41 92.77 67.55 89.44 74.72 77.9C76.07 75.74 77.43 73.56 77.75 73.07C78.06 72.57 78.48 71.87 78.67 71.5C78.86 71.13 79.27 70.43 79.59 69.93C80.03 69.24 88.59 55.05 94.63 45C95.01 44.36 95.43 43.61 95.56 43.33C95.69 43.06 96.86 41.03 98.17 38.83C99.47 36.62 100.64 34.6 100.77 34.33C100.9 34.05 101.3 33.38 101.67 32.83C102.03 32.28 102.43 31.61 102.56 31.33C102.83 30.74 105.53 26.05 106 25.33C106.19 25.06 106.44 24.61 106.56 24.33C107.1 23.15 110.14 18.15 110.44 17.95C110.62 17.83 112.14 17.63 113.8 17.52C115.47 17.4 119.23 17.08 122.17 16.82C132.03 15.92 131.33 15.94 131.33 16.61C131.33 16.93 131.2 17.34 131.04 17.52C130.88 17.69 130.3 18.66 129.75 19.67C129.21 20.68 128.31 22.32 127.76 23.33C127.21 24.34 126.18 26.22 125.49 27.5C124.79 28.78 123.94 30.28 123.61 30.83C123.28 31.38 122.9 32.06 122.77 32.33C122.65 32.61 121.9 33.93 121.1 35.28C120.31 36.62 119.67 37.78 119.67 37.86C119.67 37.99 115.94 44.42 115.33 45.33C115.15 45.61 114.9 46.06 114.77 46.33C114.46 47.03 102.01 67.79 100.63 69.9C100.01 70.86 98.76 72.81 97.86 74.24C95.34 78.25 93.78 80.65 89.24 87.5C84.2 95.11 81.07 99.66 77.06 105.17C66.38 119.89 57.92 130.09 49.17 138.83C38.94 149.05 31.57 154.13 23.5 156.53C20.76 157.34 14.97 157.43 11.73 156.71ZM281.88 112.28C288.93 108.52 297.99 98.56 304.7 87.2C305.79 85.35 306.82 83.61 306.99 83.33C307.15 83.06 307.84 81.71 308.5 80.33C309.17 78.96 309.87 77.54 310.06 77.19C310.26 76.84 310.54 76.16 310.68 75.69C310.83 75.22 311.26 74.01 311.65 73C312.67 70.31 313.67 65.85 313.67 63.98C313.67 60.83 311.88 58.33 309.63 58.33C308.57 58.33 306.27 59.25 303.95 60.59C297.77 64.16 287.8 75.52 281.8 85.83C279.94 89.03 280.29 88.35 277.6 93.83C277.24 94.57 276.82 95.54 276.66 96C276.51 96.46 276.07 97.65 275.7 98.64C273.57 104.27 273.05 109.65 274.43 111.7C274.84 112.32 275.56 113.02 276.01 113.26C277.21 113.89 279.6 113.49 281.88 112.28ZM465.17 96.55C469.5 94.36 473.45 90.97 478.82 84.83C481.07 82.26 485.18 76.76 486.86 74.07C487.58 72.91 488.42 71.56 488.73 71.07C490.66 67.98 494.19 60.82 495.32 57.67C496.64 54 497.67 49.67 497.67 47.8C497.67 43.62 494.71 41.31 491.26 42.81C490.66 43.07 489.94 43.37 489.67 43.47C488.94 43.75 488.16 44.27 485.34 46.37C482.21 48.7 477.71 53.19 474.36 57.33C472.07 60.15 467.16 67.09 466.56 68.35C466.43 68.62 466.03 69.28 465.68 69.83C464.94 70.98 461.34 78.17 460.51 80.17C457.96 86.27 456.92 92.92 458.13 95.27C458.71 96.38 459.62 97.22 460.5 97.42C461.58 97.68 463.74 97.28 465.17 96.55ZM134.41 40.78C132.04 40.06 130.2 38.24 129.52 35.96C128.89 33.86 128.88 32.75 129.46 30.33C131.42 22.16 140.32 13.37 148.91 11.13C151.13 10.55 154.57 10.53 156.38 11.08C159.18 11.94 161.35 15.19 161.32 18.48C161.26 25.79 154.18 35.05 145.52 39.14C141.54 41.03 137.27 41.66 134.41 40.78ZM254.6 30.37C250.71 29.55 248.35 25.2 249.29 20.59C250.93 12.46 259 3.9 267.83 0.91C270.78 -0.09 275.35 -0.09 277.22 0.91C284.25 4.67 281.95 15.56 272.31 24.15C271.09 25.24 269.88 26.21 269.63 26.31C269.37 26.42 268.57 26.88 267.83 27.33C266.28 28.31 264.73 29.06 262.75 29.8C261.09 30.42 256.38 30.75 254.6 30.37Z"/></svg>
